  0
SECTION
  2
HEADER
  9
$ACADVER
  1
AC1009
  9
$EXTMIN
 10
0.0
 20
0.0
 30
0.0
  9
$EXTMAX
 10
1000.0
 20
1000.0
 30
0.0
  9
$FILLMODE
 70
 0
  9
$SPLFRAME
 70
 1
  0
ENDSEC
  0
SECTION
  2
TABLES
  0
TABLE
  2
LAYER
 70
1
  0
LAYER
  2
0
 70
     0
 62
     7
  6
CONTINUOUS
  0
ENDTAB
  0
ENDSEC
  0
SECTION
  2
ENTITIES
  0
LINE
  8
0
 62
     0
 10
16.6164
 20
188.889
 30
0.0
 11
15.9274
 21
188.703
 31
0.0
  0
LINE
  8
0
 62
     0
 10
15.9274
 20
188.703
 30
0.0
 11
12.886
 21
187.526
 31
0.0
  0
LINE
  8
0
 62
     0
 10
12.886
 20
187.526
 30
0.0
 11
9.97285
 21
185.831
 31
0.0
  0
LINE
  8
0
 62
     0
 10
9.97285
 20
185.831
 30
0.0
 11
9.34861
 21
185.385
 31
0.0
  0
LINE
  8
0
 62
     0
 10
9.34861
 20
185.385
 30
0.0
 11
8.59345
 21
184.847
 31
0.0
  0
LINE
  8
0
 62
     0
 10
8.59345
 20
184.847
 30
0.0
 11
5.38949
 21
181.777
 31
0.0
  0
LINE
  8
0
 62
     0
 10
5.38949
 20
181.777
 30
0.0
 11
2.85943
 21
178.109
 31
0.0
  0
LINE
  8
0
 62
     0
 10
2.85943
 20
178.109
 30
0.0
 11
2.44326
 21
177.271
 31
0.0
  0
LINE
  8
0
 62
     0
 10
2.44326
 20
177.271
 30
0.0
 11
2.33302
 21
177.05
 31
0.0
  0
LINE
  8
0
 62
     0
 10
2.33302
 20
177.05
 30
0.0
 11
1.98438
 21
176.393
 31
0.0
  0
LINE
  8
0
 62
     0
 10
1.98438
 20
176.393
 30
0.0
 11
1.5875
 21
175.625
 31
0.0
  0
LINE
  8
0
 62
     0
 10
1.5875
 20
175.625
 30
0.0
 11
1.24575
 21
174.825
 31
0.0
  0
LINE
  8
0
 62
     0
 10
1.24575
 20
174.825
 30
0.0
 11
0.957735
 21
173.845
 31
0.0
  0
LINE
  8
0
 62
     0
 10
0.957735
 20
173.845
 30
0.0
 11
0.717959
 21
172.539
 31
0.0
  0
LINE
  8
0
 62
     0
 10
0.717959
 20
172.539
 30
0.0
 11
0.520898
 21
170.761
 31
0.0
  0
LINE
  8
0
 62
     0
 10
0.520898
 20
170.761
 30
0.0
 11
0.363802
 21
168.365
 31
0.0
  0
LINE
  8
0
 62
     0
 10
0.363802
 20
168.365
 30
0.0
 11
0.241157
 21
165.205
 31
0.0
  0
LINE
  8
0
 62
     0
 10
0.241157
 20
165.205
 30
0.0
 11
0.148828
 21
161.135
 31
0.0
  0
LINE
  8
0
 62
     0
 10
0.148828
 20
161.135
 30
0.0
 11
0.0826823
 21
156.009
 31
0.0
  0
LINE
  8
0
 62
     0
 10
0.0826823
 20
156.009
 30
0.0
 11
0.039963
 21
149.681
 31
0.0
  0
LINE
  8
0
 62
     0
 10
0.039963
 20
149.681
 30
0.0
 11
0.0137804
 21
142.005
 31
0.0
  0
LINE
  8
0
 62
     0
 10
0.0137804
 20
142.005
 30
0.0
 11
0.00137804
 21
132.835
 31
0.0
  0
LINE
  8
0
 62
     0
 10
0.00137804
 20
132.835
 30
0.0
 11
-0.00275608
 21
122.024
 31
0.0
  0
LINE
  8
0
 62
     0
 10
-0.00275608
 20
122.024
 30
0.0
 11
-0.00137804
 21
109.427
 31
0.0
  0
LINE
  8
0
 62
     0
 10
-0.00137804
 20
109.427
 30
0.0
 11
0
 21
98.5298
 31
0.0
  0
LINE
  8
0
 62
     0
 10
0
 20
98.5298
 30
0.0
 11
0
 21
94.8972
 31
0.0
  0
LINE
  8
0
 62
     0
 10
0
 20
94.8972
 30
0.0
 11
0
 21
91.2661
 31
0.0
  0
LINE
  8
0
 62
     0
 10
0
 20
91.2661
 30
0.0
 11
-0.00137804
 21
80.3684
 31
0.0
  0
LINE
  8
0
 62
     0
 10
-0.00137804
 20
80.3684
 30
0.0
 11
-0.00275608
 21
67.7718
 31
0.0
  0
LINE
  8
0
 62
     0
 10
-0.00275608
 20
67.7718
 30
0.0
 11
0.00137804
 21
56.9613
 31
0.0
  0
LINE
  8
0
 62
     0
 10
0.00137804
 20
56.9613
 30
0.0
 11
0.0137804
 21
47.7905
 31
0.0
  0
LINE
  8
0
 62
     0
 10
0.0137804
 20
47.7905
 30
0.0
 11
0.039963
 21
40.1147
 31
0.0
  0
LINE
  8
0
 62
     0
 10
0.039963
 20
40.1147
 30
0.0
 11
0.0826823
 21
33.7867
 31
0.0
  0
LINE
  8
0
 62
     0
 10
0.0826823
 20
33.7867
 30
0.0
 11
0.148828
 21
28.6604
 31
0.0
  0
LINE
  8
0
 62
     0
 10
0.148828
 20
28.6604
 30
0.0
 11
0.241157
 21
24.5897
 31
0.0
  0
LINE
  8
0
 62
     0
 10
0.241157
 20
24.5897
 30
0.0
 11
0.363802
 21
21.4313
 31
0.0
  0
LINE
  8
0
 62
     0
 10
0.363802
 20
21.4313
 30
0.0
 11
0.520898
 21
19.0348
 31
0.0
  0
LINE
  8
0
 62
     0
 10
0.520898
 20
19.0348
 30
0.0
 11
0.717959
 21
17.2572
 31
0.0
  0
LINE
  8
0
 62
     0
 10
0.717959
 20
17.2572
 30
0.0
 11
0.957735
 21
15.9508
 31
0.0
  0
LINE
  8
0
 62
     0
 10
0.957735
 20
15.9508
 30
0.0
 11
1.24575
 21
14.971
 31
0.0
  0
LINE
  8
0
 62
     0
 10
1.24575
 20
14.971
 30
0.0
 11
1.5875
 21
14.1704
 31
0.0
  0
LINE
  8
0
 62
     0
 10
1.5875
 20
14.1704
 30
0.0
 11
1.98438
 21
13.4028
 31
0.0
  0
LINE
  8
0
 62
     0
 10
1.98438
 20
13.4028
 30
0.0
 11
2.33302
 21
12.7455
 31
0.0
  0
LINE
  8
0
 62
     0
 10
2.33302
 20
12.7455
 30
0.0
 11
2.44326
 21
12.5236
 31
0.0
  0
LINE
  8
0
 62
     0
 10
2.44326
 20
12.5236
 30
0.0
 11
2.87734
 21
11.6513
 31
0.0
  0
LINE
  8
0
 62
     0
 10
2.87734
 20
11.6513
 30
0.0
 11
5.63481
 21
7.77215
 31
0.0
  0
LINE
  8
0
 62
     0
 10
5.63481
 20
7.77215
 30
0.0
 11
9.18602
 21
4.52134
 31
0.0
  0
LINE
  8
0
 62
     0
 10
9.18602
 20
4.52134
 30
0.0
 11
10.0183
 21
3.96187
 31
0.0
  0
LINE
  8
0
 62
     0
 10
10.0183
 20
3.96187
 30
0.0
 11
10.5985
 21
3.57325
 31
0.0
  0
LINE
  8
0
 62
     0
 10
10.5985
 20
3.57325
 30
0.0
 11
12.4272
 21
2.53146
 31
0.0
  0
LINE
  8
0
 62
     0
 10
12.4272
 20
2.53146
 30
0.0
 11
14.8732
 21
1.49242
 31
0.0
  0
LINE
  8
0
 62
     0
 10
14.8732
 20
1.49242
 30
0.0
 11
17.5479
 21
0.778591
 31
0.0
  0
LINE
  8
0
 62
     0
 10
17.5479
 20
0.778591
 30
0.0
 11
19.8617
 21
0.405144
 31
0.0
  0
LINE
  8
0
 62
     0
 10
19.8617
 20
0.405144
 30
0.0
 11
20.6375
 21
0.325217
 31
0.0
  0
LINE
  8
0
 62
     0
 10
20.6375
 20
0.325217
 30
0.0
 11
20.88
 21
0.300412
 31
0.0
  0
LINE
  8
0
 62
     0
 10
20.88
 20
0.300412
 30
0.0
 11
21.6159
 21
0.283876
 31
0.0
  0
LINE
  8
0
 62
     0
 10
21.6159
 20
0.283876
 30
0.0
 11
23.6816
 21
0.243913
 31
0.0
  0
LINE
  8
0
 62
     0
 10
23.6816
 20
0.243913
 30
0.0
 11
26.8277
 21
0.209462
 31
0.0
  0
LINE
  8
0
 62
     0
 10
26.8277
 20
0.209462
 30
0.0
 11
31.0458
 21
0.176389
 31
0.0
  0
LINE
  8
0
 62
     0
 10
31.0458
 20
0.176389
 30
0.0
 11
36.3266
 21
0.148828
 31
0.0
  0
LINE
  8
0
 62
     0
 10
36.3266
 20
0.148828
 30
0.0
 11
42.6628
 21
0.124024
 31
0.0
  0
LINE
  8
0
 62
     0
 10
42.6628
 20
0.124024
 30
0.0
 11
50.0461
 21
0.101975
 31
0.0
  0
LINE
  8
0
 62
     0
 10
50.0461
 20
0.101975
 30
0.0
 11
58.4687
 21
0.0840602
 31
0.0
  0
LINE
  8
0
 62
     0
 10
58.4687
 20
0.0840602
 30
0.0
 11
67.9207
 21
0.07028
 31
0.0
  0
LINE
  8
0
 62
     0
 10
67.9207
 20
0.07028
 30
0.0
 11
78.3978
 21
0.0592557
 31
0.0
  0
LINE
  8
0
 62
     0
 10
78.3978
 20
0.0592557
 30
0.0
 11
89.8881
 21
0.0523656
 31
0.0
  0
LINE
  8
0
 62
     0
 10
89.8881
 20
0.0523656
 30
0.0
 11
102.386
 21
0.0482314
 31
0.0
  0
LINE
  8
0
 62
     0
 10
102.386
 20
0.0482314
 30
0.0
 11
115.88
 21
0.0482314
 31
0.0
  0
LINE
  8
0
 62
     0
 10
115.88
 20
0.0482314
 30
0.0
 11
130.367
 21
0.0523656
 31
0.0
  0
LINE
  8
0
 62
     0
 10
130.367
 20
0.0523656
 30
0.0
 11
145.835
 21
0.0592557
 31
0.0
  0
LINE
  8
0
 62
     0
 10
145.835
 20
0.0592557
 30
0.0
 11
158.167
 21
0.0675238
 31
0.0
  0
LINE
  8
0
 62
     0
 10
158.167
 20
0.0675238
 30
0.0
 11
162.278
 21
0.07028
 31
0.0
  0
LINE
  8
0
 62
     0
 10
162.278
 20
0.07028
 30
0.0
 11
165.287
 21
0.0730359
 31
0.0
  0
LINE
  8
0
 62
     0
 10
165.287
 20
0.0730359
 30
0.0
 11
174.316
 21
0.0799264
 31
0.0
  0
LINE
  8
0
 62
     0
 10
174.316
 20
0.0799264
 30
0.0
 11
185.637
 21
0.0895724
 31
0.0
  0
LINE
  8
0
 62
     0
 10
185.637
 20
0.0895724
 30
0.0
 11
196.262
 21
0.0978408
 31
0.0
  0
LINE
  8
0
 62
     0
 10
196.262
 20
0.0978408
 30
0.0
 11
206.212
 21
0.107487
 31
0.0
  0
LINE
  8
0
 62
     0
 10
206.212
 20
0.107487
 30
0.0
 11
215.511
 21
0.115755
 31
0.0
  0
LINE
  8
0
 62
     0
 10
215.511
 20
0.115755
 30
0.0
 11
224.182
 21
0.125402
 31
0.0
  0
LINE
  8
0
 62
     0
 10
224.182
 20
0.125402
 30
0.0
 11
232.248
 21
0.135048
 31
0.0
  0
LINE
  8
0
 62
     0
 10
232.248
 20
0.135048
 30
0.0
 11
239.728
 21
0.144694
 31
0.0
  0
LINE
  8
0
 62
     0
 10
239.728
 20
0.144694
 30
0.0
 11
246.648
 21
0.15434
 31
0.0
  0
LINE
  8
0
 62
     0
 10
246.648
 20
0.15434
 30
0.0
 11
253.028
 21
0.165365
 31
0.0
  0
LINE
  8
0
 62
     0
 10
253.028
 20
0.165365
 30
0.0
 11
258.893
 21
0.177767
 31
0.0
  0
LINE
  8
0
 62
     0
 10
258.893
 20
0.177767
 30
0.0
 11
264.264
 21
0.190169
 31
0.0
  0
LINE
  8
0
 62
     0
 10
264.264
 20
0.190169
 30
0.0
 11
269.162
 21
0.20395
 31
0.0
  0
LINE
  8
0
 62
     0
 10
269.162
 20
0.20395
 30
0.0
 11
273.612
 21
0.219108
 31
0.0
  0
LINE
  8
0
 62
     0
 10
273.612
 20
0.219108
 30
0.0
 11
277.635
 21
0.235645
 31
0.0
  0
LINE
  8
0
 62
     0
 10
277.635
 20
0.235645
 30
0.0
 11
281.254
 21
0.252181
 31
0.0
  0
LINE
  8
0
 62
     0
 10
281.254
 20
0.252181
 30
0.0
 11
284.491
 21
0.271473
 31
0.0
  0
LINE
  8
0
 62
     0
 10
284.491
 20
0.271473
 30
0.0
 11
287.369
 21
0.292144
 31
0.0
  0
LINE
  8
0
 62
     0
 10
287.369
 20
0.292144
 30
0.0
 11
289.91
 21
0.315571
 31
0.0
  0
LINE
  8
0
 62
     0
 10
289.91
 20
0.315571
 30
0.0
 11
292.136
 21
0.338998
 31
0.0
  0
LINE
  8
0
 62
     0
 10
292.136
 20
0.338998
 30
0.0
 11
294.071
 21
0.365181
 31
0.0
  0
LINE
  8
0
 62
     0
 10
294.071
 20
0.365181
 30
0.0
 11
295.737
 21
0.39412
 31
0.0
  0
LINE
  8
0
 62
     0
 10
295.737
 20
0.39412
 30
0.0
 11
297.155
 21
0.424438
 31
0.0
  0
LINE
  8
0
 62
     0
 10
297.155
 20
0.424438
 30
0.0
 11
298.348
 21
0.45751
 31
0.0
  0
LINE
  8
0
 62
     0
 10
298.348
 20
0.45751
 30
0.0
 11
299.34
 21
0.493339
 31
0.0
  0
LINE
  8
0
 62
     0
 10
299.34
 20
0.493339
 30
0.0
 11
300.152
 21
0.530546
 31
0.0
  0
LINE
  8
0
 62
     0
 10
300.152
 20
0.530546
 30
0.0
 11
300.807
 21
0.571885
 31
0.0
  0
LINE
  8
0
 62
     0
 10
300.807
 20
0.571885
 30
0.0
 11
301.326
 21
0.614606
 31
0.0
  0
LINE
  8
0
 62
     0
 10
301.326
 20
0.614606
 30
0.0
 11
301.734
 21
0.661458
 31
0.0
  0
LINE
  8
0
 62
     0
 10
301.734
 20
0.661458
 30
0.0
 11
302.051
 21
0.711069
 31
0.0
  0
LINE
  8
0
 62
     0
 10
302.051
 20
0.711069
 30
0.0
 11
302.302
 21
0.763432
 31
0.0
  0
LINE
  8
0
 62
     0
 10
302.302
 20
0.763432
 30
0.0
 11
302.456
 21
0.803395
 31
0.0
  0
LINE
  8
0
 62
     0
 10
302.456
 20
0.803395
 30
0.0
 11
302.507
 21
0.818554
 31
0.0
  0
LINE
  8
0
 62
     0
 10
302.507
 20
0.818554
 30
0.0
 11
303.866
 21
1.23197
 31
0.0
  0
LINE
  8
0
 62
     0
 10
303.866
 20
1.23197
 30
0.0
 11
307.763
 21
3.07165
 31
0.0
  0
LINE
  8
0
 62
     0
 10
307.763
 20
3.07165
 30
0.0
 11
312.16
 21
6.34725
 31
0.0
  0
LINE
  8
0
 62
     0
 10
312.16
 20
6.34725
 30
0.0
 11
315.629
 21
10.5792
 31
0.0
  0
LINE
  8
0
 62
     0
 10
315.629
 20
10.5792
 30
0.0
 11
317.631
 21
14.3674
 31
0.0
  0
LINE
  8
0
 62
     0
 10
317.631
 20
14.3674
 30
0.0
 11
318.098
 21
15.6986
 31
0.0
  0
LINE
  8
0
 62
     0
 10
318.098
 20
15.6986
 30
0.0
 11
319.088
 21
18.5208
 31
0.0
  0
LINE
  8
0
 62
     0
 10
319.088
 20
18.5208
 30
0.0
 11
319.194
 21
33.7785
 31
0.0
  0
LINE
  8
0
 62
     0
 10
319.194
 20
33.7785
 30
0.0
 11
319.3
 21
49.0361
 31
0.0
  0
LINE
  8
0
 62
     0
 10
319.3
 20
49.0361
 30
0.0
 11
325.931
 21
49.0361
 31
0.0
  0
LINE
  8
0
 62
     0
 10
325.931
 20
49.0361
 30
0.0
 11
326.61
 21
49.0361
 31
0.0
  0
LINE
  8
0
 62
     0
 10
326.61
 20
49.0361
 30
0.0
 11
328.651
 21
49.065
 31
0.0
  0
LINE
  8
0
 62
     0
 10
328.651
 20
49.065
 30
0.0
 11
331.17
 21
49.1423
 31
0.0
  0
LINE
  8
0
 62
     0
 10
331.17
 20
49.1423
 30
0.0
 11
333.204
 21
49.2552
 31
0.0
  0
LINE
  8
0
 62
     0
 10
333.204
 20
49.2552
 30
0.0
 11
334.207
 21
49.3448
 31
0.0
  0
LINE
  8
0
 62
     0
 10
334.207
 20
49.3448
 30
0.0
 11
334.469
 21
49.3931
 31
0.0
  0
LINE
  8
0
 62
     0
 10
334.469
 20
49.3931
 30
0.0
 11
335.273
 21
49.5445
 31
0.0
  0
LINE
  8
0
 62
     0
 10
335.273
 20
49.5445
 30
0.0
 11
337.616
 21
50.3728
 31
0.0
  0
LINE
  8
0
 62
     0
 10
337.616
 20
50.3728
 30
0.0
 11
340.386
 21
52.0277
 31
0.0
  0
LINE
  8
0
 62
     0
 10
340.386
 20
52.0277
 30
0.0
 11
342.688
 21
54.2865
 31
0.0
  0
LINE
  8
0
 62
     0
 10
342.688
 20
54.2865
 30
0.0
 11
344.083
 21
56.3411
 31
0.0
  0
LINE
  8
0
 62
     0
 10
344.083
 20
56.3411
 30
0.0
 11
344.431
 21
57.0798
 31
0.0
  0
LINE
  8
0
 62
     0
 10
344.431
 20
57.0798
 30
0.0
 11
345.546
 21
59.4431
 31
0.0
  0
LINE
  8
0
 62
     0
 10
345.546
 20
59.4431
 30
0.0
 11
345.546
 21
94.3681
 31
0.0
  0
LINE
  8
0
 62
     0
 10
345.546
 20
94.3681
 30
0.0
 11
345.546
 21
129.293
 31
0.0
  0
LINE
  8
0
 62
     0
 10
345.546
 20
129.293
 30
0.0
 11
344.423
 21
131.656
 31
0.0
  0
LINE
  8
0
 62
     0
 10
344.423
 20
131.656
 30
0.0
 11
344.075
 21
132.388
 31
0.0
  0
LINE
  8
0
 62
     0
 10
344.075
 20
132.388
 30
0.0
 11
342.717
 21
134.429
 31
0.0
  0
LINE
  8
0
 62
     0
 10
342.717
 20
134.429
 30
0.0
 11
340.52
 21
136.654
 31
0.0
  0
LINE
  8
0
 62
     0
 10
340.52
 20
136.654
 30
0.0
 11
337.881
 21
138.295
 31
0.0
  0
LINE
  8
0
 62
     0
 10
337.881
 20
138.295
 30
0.0
 11
335.631
 21
139.139
 31
0.0
  0
LINE
  8
0
 62
     0
 10
335.631
 20
139.139
 30
0.0
 11
334.856
 21
139.303
 31
0.0
  0
LINE
  8
0
 62
     0
 10
334.856
 20
139.303
 30
0.0
 11
334.599
 21
139.358
 31
0.0
  0
LINE
  8
0
 62
     0
 10
334.599
 20
139.358
 30
0.0
 11
333.59
 21
139.459
 31
0.0
  0
LINE
  8
0
 62
     0
 10
333.59
 20
139.459
 30
0.0
 11
331.529
 21
139.584
 31
0.0
  0
LINE
  8
0
 62
     0
 10
331.529
 20
139.584
 30
0.0
 11
328.952
 21
139.67
 31
0.0
  0
LINE
  8
0
 62
     0
 10
328.952
 20
139.67
 30
0.0
 11
326.844
 21
139.7
 31
0.0
  0
LINE
  8
0
 62
     0
 10
326.844
 20
139.7
 30
0.0
 11
326.143
 21
139.7
 31
0.0
  0
LINE
  8
0
 62
     0
 10
326.143
 20
139.7
 30
0.0
 11
319.3
 21
139.7
 31
0.0
  0
LINE
  8
0
 62
     0
 10
319.3
 20
139.7
 30
0.0
 11
319.194
 21
155.487
 31
0.0
  0
LINE
  8
0
 62
     0
 10
319.194
 20
155.487
 30
0.0
 11
319.088
 21
171.274
 31
0.0
  0
LINE
  8
0
 62
     0
 10
319.088
 20
171.274
 30
0.0
 11
318.097
 21
174.096
 31
0.0
  0
LINE
  8
0
 62
     0
 10
318.097
 20
174.096
 30
0.0
 11
317.711
 21
175.193
 31
0.0
  0
LINE
  8
0
 62
     0
 10
317.711
 20
175.193
 30
0.0
 11
316.183
 21
178.351
 31
0.0
  0
LINE
  8
0
 62
     0
 10
316.183
 20
178.351
 30
0.0
 11
313.655
 21
181.962
 31
0.0
  0
LINE
  8
0
 62
     0
 10
313.655
 20
181.962
 30
0.0
 11
310.509
 21
184.934
 31
0.0
  0
LINE
  8
0
 62
     0
 10
310.509
 20
184.934
 30
0.0
 11
307.728
 21
186.783
 31
0.0
  0
LINE
  8
0
 62
     0
 10
307.728
 20
186.783
 30
0.0
 11
306.74
 21
187.273
 31
0.0
  0
LINE
  8
0
 62
     0
 10
306.74
 20
187.273
 30
0.0
 11
306.638
 21
187.324
 31
0.0
  0
LINE
  8
0
 62
     0
 10
306.638
 20
187.324
 30
0.0
 11
306.339
 21
187.488
 31
0.0
  0
LINE
  8
0
 62
     0
 10
306.339
 20
187.488
 30
0.0
 11
306.01
 21
187.686
 31
0.0
  0
LINE
  8
0
 62
     0
 10
306.01
 20
187.686
 30
0.0
 11
305.715
 21
187.872
 31
0.0
  0
LINE
  8
0
 62
     0
 10
305.715
 20
187.872
 30
0.0
 11
305.422
 21
188.044
 31
0.0
  0
LINE
  8
0
 62
     0
 10
305.422
 20
188.044
 30
0.0
 11
305.095
 21
188.203
 31
0.0
  0
LINE
  8
0
 62
     0
 10
305.095
 20
188.203
 30
0.0
 11
304.704
 21
188.349
 31
0.0
  0
LINE
  8
0
 62
     0
 10
304.704
 20
188.349
 30
0.0
 11
304.209
 21
188.484
 31
0.0
  0
LINE
  8
0
 62
     0
 10
304.209
 20
188.484
 30
0.0
 11
303.582
 21
188.608
 31
0.0
  0
LINE
  8
0
 62
     0
 10
303.582
 20
188.608
 30
0.0
 11
302.784
 21
188.72
 31
0.0
  0
LINE
  8
0
 62
     0
 10
302.784
 20
188.72
 30
0.0
 11
301.783
 21
188.821
 31
0.0
  0
LINE
  8
0
 62
     0
 10
301.783
 20
188.821
 30
0.0
 11
300.546
 21
188.914
 31
0.0
  0
LINE
  8
0
 62
     0
 10
300.546
 20
188.914
 30
0.0
 11
299.037
 21
188.995
 31
0.0
  0
LINE
  8
0
 62
     0
 10
299.037
 20
188.995
 30
0.0
 11
297.223
 21
189.069
 31
0.0
  0
LINE
  8
0
 62
     0
 10
297.223
 20
189.069
 30
0.0
 11
295.07
 21
189.134
 31
0.0
  0
LINE
  8
0
 62
     0
 10
295.07
 20
189.134
 30
0.0
 11
292.544
 21
189.191
 31
0.0
  0
LINE
  8
0
 62
     0
 10
292.544
 20
189.191
 30
0.0
 11
289.61
 21
189.241
 31
0.0
  0
LINE
  8
0
 62
     0
 10
289.61
 20
189.241
 30
0.0
 11
286.234
 21
189.283
 31
0.0
  0
LINE
  8
0
 62
     0
 10
286.234
 20
189.283
 30
0.0
 11
282.382
 21
189.319
 31
0.0
  0
LINE
  8
0
 62
     0
 10
282.382
 20
189.319
 30
0.0
 11
278.021
 21
189.349
 31
0.0
  0
LINE
  8
0
 62
     0
 10
278.021
 20
189.349
 30
0.0
 11
273.115
 21
189.374
 31
0.0
  0
LINE
  8
0
 62
     0
 10
273.115
 20
189.374
 30
0.0
 11
267.632
 21
189.393
 31
0.0
  0
LINE
  8
0
 62
     0
 10
267.632
 20
189.393
 30
0.0
 11
261.535
 21
189.409
 31
0.0
  0
LINE
  8
0
 62
     0
 10
261.535
 20
189.409
 30
0.0
 11
254.794
 21
189.421
 31
0.0
  0
LINE
  8
0
 62
     0
 10
254.794
 20
189.421
 30
0.0
 11
247.372
 21
189.428
 31
0.0
  0
LINE
  8
0
 62
     0
 10
247.372
 20
189.428
 30
0.0
 11
239.236
 21
189.434
 31
0.0
  0
LINE
  8
0
 62
     0
 10
239.236
 20
189.434
 30
0.0
 11
230.352
 21
189.435
 31
0.0
  0
LINE
  8
0
 62
     0
 10
230.352
 20
189.435
 30
0.0
 11
220.685
 21
189.436
 31
0.0
  0
LINE
  8
0
 62
     0
 10
220.685
 20
189.436
 30
0.0
 11
210.201
 21
189.435
 31
0.0
  0
LINE
  8
0
 62
     0
 10
210.201
 20
189.435
 30
0.0
 11
198.866
 21
189.432
 31
0.0
  0
LINE
  8
0
 62
     0
 10
198.866
 20
189.432
 30
0.0
 11
186.647
 21
189.429
 31
0.0
  0
LINE
  8
0
 62
     0
 10
186.647
 20
189.429
 30
0.0
 11
173.51
 21
189.426
 31
0.0
  0
LINE
  8
0
 62
     0
 10
173.51
 20
189.426
 30
0.0
 11
162.942
 21
189.425
 31
0.0
  0
LINE
  8
0
 62
     0
 10
162.942
 20
189.425
 30
0.0
 11
159.42
 21
189.424
 31
0.0
  0
LINE
  8
0
 62
     0
 10
159.42
 20
189.424
 30
0.0
 11
154
 21
189.424
 31
0.0
  0
LINE
  8
0
 62
     0
 10
154
 20
189.424
 30
0.0
 11
137.742
 21
189.421
 31
0.0
  0
LINE
  8
0
 62
     0
 10
137.742
 20
189.421
 30
0.0
 11
118.346
 21
189.416
 31
0.0
  0
LINE
  8
0
 62
     0
 10
118.346
 20
189.416
 30
0.0
 11
101.108
 21
189.407
 31
0.0
  0
LINE
  8
0
 62
     0
 10
101.108
 20
189.407
 30
0.0
 11
85.9028
 21
189.398
 31
0.0
  0
LINE
  8
0
 62
     0
 10
85.9028
 20
189.398
 30
0.0
 11
72.6063
 21
189.384
 31
0.0
  0
LINE
  8
0
 62
     0
 10
72.6063
 20
189.384
 30
0.0
 11
61.0926
 21
189.367
 31
0.0
  0
LINE
  8
0
 62
     0
 10
61.0926
 20
189.367
 30
0.0
 11
51.2367
 21
189.345
 31
0.0
  0
LINE
  8
0
 62
     0
 10
51.2367
 20
189.345
 30
0.0
 11
42.9161
 21
189.319
 31
0.0
  0
LINE
  8
0
 62
     0
 10
42.9161
 20
189.319
 30
0.0
 11
36.0041
 21
189.289
 31
0.0
  0
LINE
  8
0
 62
     0
 10
36.0041
 20
189.289
 30
0.0
 11
30.3775
 21
189.252
 31
0.0
  0
LINE
  8
0
 62
     0
 10
30.3775
 20
189.252
 30
0.0
 11
25.9099
 21
189.209
 31
0.0
  0
LINE
  8
0
 62
     0
 10
25.9099
 20
189.209
 30
0.0
 11
22.4786
 21
189.161
 31
0.0
  0
LINE
  8
0
 62
     0
 10
22.4786
 20
189.161
 30
0.0
 11
19.9581
 21
189.104
 31
0.0
  0
LINE
  8
0
 62
     0
 10
19.9581
 20
189.104
 30
0.0
 11
18.2246
 21
189.041
 31
0.0
  0
LINE
  8
0
 62
     0
 10
18.2246
 20
189.041
 30
0.0
 11
17.1511
 21
188.969
 31
0.0
  0
LINE
  8
0
 62
     0
 10
17.1511
 20
188.969
 30
0.0
 11
16.7445
 21
188.925
 31
0.0
  0
LINE
  8
0
 62
     0
 10
16.7445
 20
188.925
 30
0.0
 11
16.6164
 21
188.889
 31
0.0
  0
LINE
  8
0
 62
     0
 10
300.426
 20
174.844
 30
0.0
 11
300.809
 21
174.666
 31
0.0
  0
LINE
  8
0
 62
     0
 10
300.809
 20
174.666
 30
0.0
 11
301.885
 21
173.966
 31
0.0
  0
LINE
  8
0
 62
     0
 10
301.885
 20
173.966
 30
0.0
 11
303.141
 21
172.824
 31
0.0
  0
LINE
  8
0
 62
     0
 10
303.141
 20
172.824
 30
0.0
 11
304.108
 21
171.508
 31
0.0
  0
LINE
  8
0
 62
     0
 10
304.108
 20
171.508
 30
0.0
 11
304.608
 21
170.473
 31
0.0
  0
LINE
  8
0
 62
     0
 10
304.608
 20
170.473
 30
0.0
 11
304.708
 21
170.109
 31
0.0
  0
LINE
  8
0
 62
     0
 10
304.708
 20
170.109
 30
0.0
 11
304.746
 21
169.969
 31
0.0
  0
LINE
  8
0
 62
     0
 10
304.746
 20
169.969
 30
0.0
 11
304.753
 21
169.515
 31
0.0
  0
LINE
  8
0
 62
     0
 10
304.753
 20
169.515
 30
0.0
 11
304.796
 21
168.118
 31
0.0
  0
LINE
  8
0
 62
     0
 10
304.796
 20
168.118
 30
0.0
 11
304.835
 21
165.972
 31
0.0
  0
LINE
  8
0
 62
     0
 10
304.835
 20
165.972
 30
0.0
 11
304.869
 21
163.131
 31
0.0
  0
LINE
  8
0
 62
     0
 10
304.869
 20
163.131
 30
0.0
 11
304.899
 21
159.647
 31
0.0
  0
LINE
  8
0
 62
     0
 10
304.899
 20
159.647
 30
0.0
 11
304.927
 21
155.576
 31
0.0
  0
LINE
  8
0
 62
     0
 10
304.927
 20
155.576
 30
0.0
 11
304.952
 21
150.971
 31
0.0
  0
LINE
  8
0
 62
     0
 10
304.952
 20
150.971
 30
0.0
 11
304.972
 21
145.885
 31
0.0
  0
LINE
  8
0
 62
     0
 10
304.972
 20
145.885
 30
0.0
 11
304.989
 21
140.371
 31
0.0
  0
LINE
  8
0
 62
     0
 10
304.989
 20
140.371
 30
0.0
 11
305.002
 21
134.484
 31
0.0
  0
LINE
  8
0
 62
     0
 10
305.002
 20
134.484
 30
0.0
 11
305.012
 21
128.276
 31
0.0
  0
LINE
  8
0
 62
     0
 10
305.012
 20
128.276
 30
0.0
 11
305.019
 21
121.804
 31
0.0
  0
LINE
  8
0
 62
     0
 10
305.019
 20
121.804
 30
0.0
 11
305.023
 21
115.117
 31
0.0
  0
LINE
  8
0
 62
     0
 10
305.023
 20
115.117
 30
0.0
 11
305.025
 21
108.272
 31
0.0
  0
LINE
  8
0
 62
     0
 10
305.025
 20
108.272
 30
0.0
 11
305.022
 21
101.322
 31
0.0
  0
LINE
  8
0
 62
     0
 10
305.022
 20
101.322
 30
0.0
 11
305.016
 21
94.3197
 31
0.0
  0
LINE
  8
0
 62
     0
 10
305.016
 20
94.3197
 30
0.0
 11
305.008
 21
87.3196
 31
0.0
  0
LINE
  8
0
 62
     0
 10
305.008
 20
87.3196
 30
0.0
 11
304.996
 21
80.3755
 31
0.0
  0
LINE
  8
0
 62
     0
 10
304.996
 20
80.3755
 30
0.0
 11
304.982
 21
73.539
 31
0.0
  0
LINE
  8
0
 62
     0
 10
304.982
 20
73.539
 30
0.0
 11
304.964
 21
66.8666
 31
0.0
  0
LINE
  8
0
 62
     0
 10
304.964
 20
66.8666
 30
0.0
 11
304.943
 21
60.4104
 31
0.0
  0
LINE
  8
0
 62
     0
 10
304.943
 20
60.4104
 30
0.0
 11
304.921
 21
54.2244
 31
0.0
  0
LINE
  8
0
 62
     0
 10
304.921
 20
54.2244
 30
0.0
 11
304.895
 21
48.3623
 31
0.0
  0
LINE
  8
0
 62
     0
 10
304.895
 20
48.3623
 30
0.0
 11
304.867
 21
42.8763
 31
0.0
  0
LINE
  8
0
 62
     0
 10
304.867
 20
42.8763
 30
0.0
 11
304.837
 21
37.8231
 31
0.0
  0
LINE
  8
0
 62
     0
 10
304.837
 20
37.8231
 30
0.0
 11
304.804
 21
33.2534
 31
0.0
  0
LINE
  8
0
 62
     0
 10
304.804
 20
33.2534
 30
0.0
 11
304.768
 21
29.2213
 31
0.0
  0
LINE
  8
0
 62
     0
 10
304.768
 20
29.2213
 30
0.0
 11
304.73
 21
25.7817
 31
0.0
  0
LINE
  8
0
 62
     0
 10
304.73
 20
25.7817
 30
0.0
 11
304.69
 21
22.9884
 31
0.0
  0
LINE
  8
0
 62
     0
 10
304.69
 20
22.9884
 30
0.0
 11
304.646
 21
20.8925
 31
0.0
  0
LINE
  8
0
 62
     0
 10
304.646
 20
20.8925
 30
0.0
 11
304.602
 21
19.5502
 31
0.0
  0
LINE
  8
0
 62
     0
 10
304.602
 20
19.5502
 30
0.0
 11
304.604
 21
19.1327
 31
0.0
  0
LINE
  8
0
 62
     0
 10
304.604
 20
19.1327
 30
0.0
 11
304.555
 21
19.0142
 31
0.0
  0
LINE
  8
0
 62
     0
 10
304.555
 20
19.0142
 30
0.0
 11
304.421
 21
18.7
 31
0.0
  0
LINE
  8
0
 62
     0
 10
304.421
 20
18.7
 30
0.0
 11
303.875
 21
17.818
 31
0.0
  0
LINE
  8
0
 62
     0
 10
303.875
 20
17.818
 30
0.0
 11
302.909
 21
16.6894
 31
0.0
  0
LINE
  8
0
 62
     0
 10
302.909
 20
16.6894
 30
0.0
 11
301.734
 21
15.7069
 31
0.0
  0
LINE
  8
0
 62
     0
 10
301.734
 20
15.7069
 30
0.0
 11
300.768
 21
15.1033
 31
0.0
  0
LINE
  8
0
 62
     0
 10
300.768
 20
15.1033
 30
0.0
 11
300.426
 21
14.9448
 31
0.0
  0
LINE
  8
0
 62
     0
 10
300.426
 20
14.9448
 30
0.0
 11
298.626
 21
14.1111
 31
0.0
  0
LINE
  8
0
 62
     0
 10
298.626
 20
14.1111
 30
0.0
 11
159.844
 21
14.1111
 31
0.0
  0
LINE
  8
0
 62
     0
 10
159.844
 20
14.1111
 30
0.0
 11
155.155
 21
14.1111
 31
0.0
  0
LINE
  8
0
 62
     0
 10
155.155
 20
14.1111
 30
0.0
 11
141.09
 21
14.1125
 31
0.0
  0
LINE
  8
0
 62
     0
 10
141.09
 20
14.1125
 30
0.0
 11
123.913
 21
14.1166
 31
0.0
  0
LINE
  8
0
 62
     0
 10
123.913
 20
14.1166
 30
0.0
 11
108.26
 21
14.1235
 31
0.0
  0
LINE
  8
0
 62
     0
 10
108.26
 20
14.1235
 30
0.0
 11
94.0802
 21
14.1332
 31
0.0
  0
LINE
  8
0
 62
     0
 10
94.0802
 20
14.1332
 30
0.0
 11
81.3195
 21
14.1456
 31
0.0
  0
LINE
  8
0
 62
     0
 10
81.3195
 20
14.1456
 30
0.0
 11
69.9258
 21
14.1607
 31
0.0
  0
LINE
  8
0
 62
     0
 10
69.9258
 20
14.1607
 30
0.0
 11
59.848
 21
14.18
 31
0.0
  0
LINE
  8
0
 62
     0
 10
59.848
 20
14.18
 30
0.0
 11
51.0328
 21
14.2021
 31
0.0
  0
LINE
  8
0
 62
     0
 10
51.0328
 20
14.2021
 30
0.0
 11
43.4276
 21
14.2282
 31
0.0
  0
LINE
  8
0
 62
     0
 10
43.4276
 20
14.2282
 30
0.0
 11
36.9796
 21
14.2586
 31
0.0
  0
LINE
  8
0
 62
     0
 10
36.9796
 20
14.2586
 30
0.0
 11
31.6384
 21
14.293
 31
0.0
  0
LINE
  8
0
 62
     0
 10
31.6384
 20
14.293
 30
0.0
 11
27.3513
 21
14.3316
 31
0.0
  0
LINE
  8
0
 62
     0
 10
27.3513
 20
14.3316
 30
0.0
 11
24.0633
 21
14.3729
 31
0.0
  0
LINE
  8
0
 62
     0
 10
24.0633
 20
14.3729
 30
0.0
 11
21.7248
 21
14.4198
 31
0.0
  0
LINE
  8
0
 62
     0
 10
21.7248
 20
14.4198
 30
0.0
 11
20.2833
 21
14.4721
 31
0.0
  0
LINE
  8
0
 62
     0
 10
20.2833
 20
14.4721
 30
0.0
 11
19.8258
 21
14.4859
 31
0.0
  0
LINE
  8
0
 62
     0
 10
19.8258
 20
14.4859
 30
0.0
 11
19.6853
 21
14.5273
 31
0.0
  0
LINE
  8
0
 62
     0
 10
19.6853
 20
14.5273
 30
0.0
 11
19.3242
 21
14.6362
 31
0.0
  0
LINE
  8
0
 62
     0
 10
19.3242
 20
14.6362
 30
0.0
 11
18.3003
 21
15.1639
 31
0.0
  0
LINE
  8
0
 62
     0
 10
18.3003
 20
15.1639
 30
0.0
 11
16.9099
 21
16.1823
 31
0.0
  0
LINE
  8
0
 62
     0
 10
16.9099
 20
16.1823
 30
0.0
 11
15.6614
 21
17.4515
 31
0.0
  0
LINE
  8
0
 62
     0
 10
15.6614
 20
17.4515
 30
0.0
 11
14.9076
 21
18.4699
 31
0.0
  0
LINE
  8
0
 62
     0
 10
14.9076
 20
18.4699
 30
0.0
 11
14.7106
 21
18.8378
 31
0.0
  0
LINE
  8
0
 62
     0
 10
14.7106
 20
18.8378
 30
0.0
 11
13.9347
 21
20.2847
 31
0.0
  0
LINE
  8
0
 62
     0
 10
13.9347
 20
20.2847
 30
0.0
 11
13.9347
 21
94.8972
 31
0.0
  0
LINE
  8
0
 62
     0
 10
13.9347
 20
94.8972
 30
0.0
 11
13.9347
 21
169.51
 31
0.0
  0
LINE
  8
0
 62
     0
 10
13.9347
 20
169.51
 30
0.0
 11
14.7216
 21
170.991
 31
0.0
  0
LINE
  8
0
 62
     0
 10
14.7216
 20
170.991
 30
0.0
 11
14.9035
 21
171.337
 31
0.0
  0
LINE
  8
0
 62
     0
 10
14.9035
 20
171.337
 30
0.0
 11
15.6035
 21
172.292
 31
0.0
  0
LINE
  8
0
 62
     0
 10
15.6035
 20
172.292
 30
0.0
 11
16.7817
 21
173.51
 31
0.0
  0
LINE
  8
0
 62
     0
 10
16.7817
 20
173.51
 30
0.0
 11
18.1088
 21
174.519
 31
0.0
  0
LINE
  8
0
 62
     0
 10
18.1088
 20
174.519
 30
0.0
 11
19.09
 21
175.063
 31
0.0
  0
LINE
  8
0
 62
     0
 10
19.09
 20
175.063
 30
0.0
 11
19.4386
 21
175.186
 31
0.0
  0
LINE
  8
0
 62
     0
 10
19.4386
 20
175.186
 30
0.0
 11
19.5626
 21
175.23
 31
0.0
  0
LINE
  8
0
 62
     0
 10
19.5626
 20
175.23
 30
0.0
 11
19.9774
 21
175.247
 31
0.0
  0
LINE
  8
0
 62
     0
 10
19.9774
 20
175.247
 30
0.0
 11
21.2893
 21
175.3
 31
0.0
  0
LINE
  8
0
 62
     0
 10
21.2893
 20
175.3
 30
0.0
 11
23.4446
 21
175.35
 31
0.0
  0
LINE
  8
0
 62
     0
 10
23.4446
 20
175.35
 30
0.0
 11
26.5121
 21
175.395
 31
0.0
  0
LINE
  8
0
 62
     0
 10
26.5121
 20
175.395
 30
0.0
 11
30.5608
 21
175.435
 31
0.0
  0
LINE
  8
0
 62
     0
 10
30.5608
 20
175.435
 30
0.0
 11
35.6595
 21
175.471
 31
0.0
  0
LINE
  8
0
 62
     0
 10
35.6595
 20
175.471
 30
0.0
 11
41.8786
 21
175.503
 31
0.0
  0
LINE
  8
0
 62
     0
 10
41.8786
 20
175.503
 30
0.0
 11
49.2855
 21
175.532
 31
0.0
  0
LINE
  8
0
 62
     0
 10
49.2855
 20
175.532
 30
0.0
 11
57.9494
 21
175.557
 31
0.0
  0
LINE
  8
0
 62
     0
 10
57.9494
 20
175.557
 30
0.0
 11
67.9415
 21
175.577
 31
0.0
  0
LINE
  8
0
 62
     0
 10
67.9415
 20
175.577
 30
0.0
 11
79.3295
 21
175.595
 31
0.0
  0
LINE
  8
0
 62
     0
 10
79.3295
 20
175.595
 30
0.0
 11
92.1826
 21
175.612
 31
0.0
  0
LINE
  8
0
 62
     0
 10
92.1826
 20
175.612
 30
0.0
 11
106.571
 21
175.624
 31
0.0
  0
LINE
  8
0
 62
     0
 10
106.571
 20
175.624
 30
0.0
 11
122.561
 21
175.634
 31
0.0
  0
LINE
  8
0
 62
     0
 10
122.561
 20
175.634
 30
0.0
 11
140.225
 21
175.642
 31
0.0
  0
LINE
  8
0
 62
     0
 10
140.225
 20
175.642
 30
0.0
 11
154.78
 21
175.647
 31
0.0
  0
LINE
  8
0
 62
     0
 10
154.78
 20
175.647
 30
0.0
 11
159.632
 21
175.647
 31
0.0
  0
LINE
  8
0
 62
     0
 10
159.632
 20
175.647
 30
0.0
 11
298.626
 21
175.683
 31
0.0
  0
LINE
  8
0
 62
     0
 10
298.626
 20
175.683
 30
0.0
 11
300.426
 21
174.844
 31
0.0
  0
LINE
  8
0
 62
     0
 10
331.964
 20
94.3681
 30
0.0
 11
331.964
 21
63.1472
 31
0.0
  0
LINE
  8
0
 62
     0
 10
331.964
 20
63.1472
 30
0.0
 11
325.614
 21
63.1472
 31
0.0
  0
LINE
  8
0
 62
     0
 10
325.614
 20
63.1472
 30
0.0
 11
319.264
 21
63.1472
 31
0.0
  0
LINE
  8
0
 62
     0
 10
319.264
 20
63.1472
 30
0.0
 11
319.264
 21
94.3681
 31
0.0
  0
LINE
  8
0
 62
     0
 10
319.264
 20
94.3681
 30
0.0
 11
319.264
 21
125.589
 31
0.0
  0
LINE
  8
0
 62
     0
 10
319.264
 20
125.589
 30
0.0
 11
325.614
 21
125.589
 31
0.0
  0
LINE
  8
0
 62
     0
 10
325.614
 20
125.589
 30
0.0
 11
331.964
 21
125.589
 31
0.0
  0
LINE
  8
0
 62
     0
 10
331.964
 20
125.589
 30
0.0
 11
331.964
 21
94.3681
 31
0.0
  0
LINE
  8
0
 62
     0
 10
152.753
 20
105.833
 30
0.0
 11
152.753
 21
104.53
 31
0.0
  0
LINE
  8
0
 62
     0
 10
152.753
 20
104.53
 30
0.0
 11
152.746
 21
100.615
 31
0.0
  0
LINE
  8
0
 62
     0
 10
152.746
 20
100.615
 30
0.0
 11
152.729
 21
96.03
 31
0.0
  0
LINE
  8
0
 62
     0
 10
152.729
 20
96.03
 30
0.0
 11
152.701
 21
92.0983
 31
0.0
  0
LINE
  8
0
 62
     0
 10
152.701
 20
92.0983
 30
0.0
 11
152.66
 21
88.8393
 31
0.0
  0
LINE
  8
0
 62
     0
 10
152.66
 20
88.8393
 30
0.0
 11
152.611
 21
86.2707
 31
0.0
  0
LINE
  8
0
 62
     0
 10
152.611
 20
86.2707
 30
0.0
 11
152.55
 21
84.413
 31
0.0
  0
LINE
  8
0
 62
     0
 10
152.55
 20
84.413
 30
0.0
 11
152.48
 21
83.2845
 31
0.0
  0
LINE
  8
0
 62
     0
 10
152.48
 20
83.2845
 30
0.0
 11
152.419
 21
82.9028
 31
0.0
  0
LINE
  8
0
 62
     0
 10
152.419
 20
82.9028
 30
0.0
 11
152.4
 21
82.9028
 31
0.0
  0
LINE
  8
0
 62
     0
 10
152.4
 20
82.9028
 30
0.0
 11
152.193
 21
82.9028
 31
0.0
  0
LINE
  8
0
 62
     0
 10
152.193
 20
82.9028
 30
0.0
 11
151.577
 21
83.1811
 31
0.0
  0
LINE
  8
0
 62
     0
 10
151.577
 20
83.1811
 30
0.0
 11
149.359
 21
83.9791
 31
0.0
  0
LINE
  8
0
 62
     0
 10
149.359
 20
83.9791
 30
0.0
 11
145.896
 21
85.2385
 31
0.0
  0
LINE
  8
0
 62
     0
 10
145.896
 20
85.2385
 30
0.0
 11
141.343
 21
86.9047
 31
0.0
  0
LINE
  8
0
 62
     0
 10
141.343
 20
86.9047
 30
0.0
 11
135.85
 21
88.9233
 31
0.0
  0
LINE
  8
0
 62
     0
 10
135.85
 20
88.9233
 30
0.0
 11
129.571
 21
91.2357
 31
0.0
  0
LINE
  8
0
 62
     0
 10
129.571
 20
91.2357
 30
0.0
 11
122.66
 21
93.7867
 31
0.0
  0
LINE
  8
0
 62
     0
 10
122.66
 20
93.7867
 30
0.0
 11
117.117
 21
95.837
 31
0.0
  0
LINE
  8
0
 62
     0
 10
117.117
 20
95.837
 30
0.0
 11
115.27
 21
96.5207
 31
0.0
  0
LINE
  8
0
 62
     0
 10
115.27
 20
96.5207
 30
0.0
 11
113.751
 21
97.0827
 31
0.0
  0
LINE
  8
0
 62
     0
 10
113.751
 20
97.0827
 30
0.0
 11
109.198
 21
98.7683
 31
0.0
  0
LINE
  8
0
 62
     0
 10
109.198
 20
98.7683
 30
0.0
 11
103.826
 21
100.754
 31
0.0
  0
LINE
  8
0
 62
     0
 10
103.826
 20
100.754
 30
0.0
 11
99.1073
 21
102.496
 31
0.0
  0
LINE
  8
0
 62
     0
 10
99.1073
 20
102.496
 30
0.0
 11
94.9964
 21
104.006
 31
0.0
  0
LINE
  8
0
 62
     0
 10
94.9964
 20
104.006
 30
0.0
 11
91.4495
 21
105.304
 31
0.0
  0
LINE
  8
0
 62
     0
 10
91.4495
 20
105.304
 30
0.0
 11
88.4192
 21
106.404
 31
0.0
  0
LINE
  8
0
 62
     0
 10
88.4192
 20
106.404
 30
0.0
 11
85.8629
 21
107.32
 31
0.0
  0
LINE
  8
0
 62
     0
 10
85.8629
 20
107.32
 30
0.0
 11
83.7336
 21
108.071
 31
0.0
  0
LINE
  8
0
 62
     0
 10
83.7336
 20
108.071
 30
0.0
 11
81.9863
 21
108.672
 31
0.0
  0
LINE
  8
0
 62
     0
 10
81.9863
 20
108.672
 30
0.0
 11
80.5766
 21
109.138
 31
0.0
  0
LINE
  8
0
 62
     0
 10
80.5766
 20
109.138
 30
0.0
 11
79.4575
 21
109.484
 31
0.0
  0
LINE
  8
0
 62
     0
 10
79.4575
 20
109.484
 30
0.0
 11
78.5869
 21
109.728
 31
0.0
  0
LINE
  8
0
 62
     0
 10
78.5869
 20
109.728
 30
0.0
 11
77.9156
 21
109.883
 31
0.0
  0
LINE
  8
0
 62
     0
 10
77.9156
 20
109.883
 30
0.0
 11
77.4001
 21
109.966
 31
0.0
  0
LINE
  8
0
 62
     0
 10
77.4001
 20
109.966
 30
0.0
 11
76.9966
 21
109.995
 31
0.0
  0
LINE
  8
0
 62
     0
 10
76.9966
 20
109.995
 30
0.0
 11
76.7429
 21
109.988
 31
0.0
  0
LINE
  8
0
 62
     0
 10
76.7429
 20
109.988
 30
0.0
 11
76.659
 21
109.981
 31
0.0
  0
LINE
  8
0
 62
     0
 10
76.659
 20
109.981
 30
0.0
 11
76.0554
 21
109.93
 31
0.0
  0
LINE
  8
0
 62
     0
 10
76.0554
 20
109.93
 30
0.0
 11
74.2791
 21
109.365
 31
0.0
  0
LINE
  8
0
 62
     0
 10
74.2791
 20
109.365
 30
0.0
 11
72.4256
 21
108.022
 31
0.0
  0
LINE
  8
0
 62
     0
 10
72.4256
 20
108.022
 30
0.0
 11
71.18
 21
106.039
 31
0.0
  0
LINE
  8
0
 62
     0
 10
71.18
 20
106.039
 30
0.0
 11
70.6684
 21
104.145
 31
0.0
  0
LINE
  8
0
 62
     0
 10
70.6684
 20
104.145
 30
0.0
 11
70.6286
 21
103.504
 31
0.0
  0
LINE
  8
0
 62
     0
 10
70.6286
 20
103.504
 30
0.0
 11
70.6092
 21
103.204
 31
0.0
  0
LINE
  8
0
 62
     0
 10
70.6092
 20
103.204
 30
0.0
 11
70.5859
 21
102.299
 31
0.0
  0
LINE
  8
0
 62
     0
 10
70.5859
 20
102.299
 30
0.0
 11
70.6713
 21
101.403
 31
0.0
  0
LINE
  8
0
 62
     0
 10
70.6713
 20
101.403
 30
0.0
 11
70.9235
 21
100.615
 31
0.0
  0
LINE
  8
0
 62
     0
 10
70.9235
 20
100.615
 30
0.0
 11
71.2597
 21
99.9465
 31
0.0
  0
LINE
  8
0
 62
     0
 10
71.2597
 20
99.9465
 30
0.0
 11
71.3853
 21
99.7299
 31
0.0
  0
LINE
  8
0
 62
     0
 10
71.3853
 20
99.7299
 30
0.0
 11
71.4816
 21
99.5634
 31
0.0
  0
LINE
  8
0
 62
     0
 10
71.4816
 20
99.5634
 30
0.0
 11
71.8069
 21
99.0822
 31
0.0
  0
LINE
  8
0
 62
     0
 10
71.8069
 20
99.0822
 30
0.0
 11
72.2947
 21
98.4553
 31
0.0
  0
LINE
  8
0
 62
     0
 10
72.2947
 20
98.4553
 30
0.0
 11
72.7865
 21
97.9234
 31
0.0
  0
LINE
  8
0
 62
     0
 10
72.7865
 20
97.9234
 30
0.0
 11
73.1023
 21
97.6383
 31
0.0
  0
LINE
  8
0
 62
     0
 10
73.1023
 20
97.6383
 30
0.0
 11
73.2194
 21
97.561
 31
0.0
  0
LINE
  8
0
 62
     0
 10
73.2194
 20
97.561
 30
0.0
 11
73.3474
 21
97.4771
 31
0.0
  0
LINE
  8
0
 62
     0
 10
73.3474
 20
97.4771
 30
0.0
 11
74.2569
 21
97.1229
 31
0.0
  0
LINE
  8
0
 62
     0
 10
74.2569
 20
97.1229
 30
0.0
 11
76.8696
 21
96.103
 31
0.0
  0
LINE
  8
0
 62
     0
 10
76.8696
 20
96.103
 30
0.0
 11
80.8824
 21
94.5691
 31
0.0
  0
LINE
  8
0
 62
     0
 10
80.8824
 20
94.5691
 30
0.0
 11
86.1205
 21
92.5876
 31
0.0
  0
LINE
  8
0
 62
     0
 10
86.1205
 20
92.5876
 30
0.0
 11
92.4084
 21
90.2229
 31
0.0
  0
LINE
  8
0
 62
     0
 10
92.4084
 20
90.2229
 30
0.0
 11
99.5743
 21
87.5411
 31
0.0
  0
LINE
  8
0
 62
     0
 10
99.5743
 20
87.5411
 30
0.0
 11
107.44
 21
84.6102
 31
0.0
  0
LINE
  8
0
 62
     0
 10
107.44
 20
84.6102
 30
0.0
 11
113.735
 21
82.2702
 31
0.0
  0
LINE
  8
0
 62
     0
 10
113.735
 20
82.2702
 30
0.0
 11
115.835
 21
81.4917
 31
0.0
  0
LINE
  8
0
 62
     0
 10
115.835
 20
81.4917
 30
0.0
 11
117.951
 21
80.7074
 31
0.0
  0
LINE
  8
0
 62
     0
 10
117.951
 20
80.7074
 30
0.0
 11
124.301
 21
78.3512
 31
0.0
  0
LINE
  8
0
 62
     0
 10
124.301
 20
78.3512
 30
0.0
 11
132.376
 21
75.3526
 31
0.0
  0
LINE
  8
0
 62
     0
 10
132.376
 20
75.3526
 30
0.0
 11
139.869
 21
72.5646
 31
0.0
  0
LINE
  8
0
 62
     0
 10
139.869
 20
72.5646
 30
0.0
 11
146.594
 21
70.061
 31
0.0
  0
LINE
  8
0
 62
     0
 10
146.594
 20
70.061
 30
0.0
 11
152.36
 21
67.9083
 31
0.0
  0
LINE
  8
0
 62
     0
 10
152.36
 20
67.9083
 30
0.0
 11
156.978
 21
66.1804
 31
0.0
  0
LINE
  8
0
 62
     0
 10
156.978
 20
66.1804
 30
0.0
 11
160.257
 21
64.9457
 31
0.0
  0
LINE
  8
0
 62
     0
 10
160.257
 20
64.9457
 30
0.0
 11
161.575
 21
64.4483
 31
0.0
  0
LINE
  8
0
 62
     0
 10
161.575
 20
64.4483
 30
0.0
 11
162.013
 21
64.2758
 31
0.0
  0
LINE
  8
0
 62
     0
 10
162.013
 20
64.2758
 30
0.0
 11
166.511
 21
62.5119
 31
0.0
  0
LINE
  8
0
 62
     0
 10
166.511
 20
62.5119
 30
0.0
 11
166.511
 21
85.0896
 31
0.0
  0
LINE
  8
0
 62
     0
 10
166.511
 20
85.0896
 30
0.0
 11
166.511
 21
86.6193
 31
0.0
  0
LINE
  8
0
 62
     0
 10
166.511
 20
86.6193
 30
0.0
 11
166.515
 21
91.204
 31
0.0
  0
LINE
  8
0
 62
     0
 10
166.515
 20
91.204
 30
0.0
 11
166.531
 21
96.1704
 31
0.0
  0
LINE
  8
0
 62
     0
 10
166.531
 20
96.1704
 30
0.0
 11
166.559
 21
100.09
 31
0.0
  0
LINE
  8
0
 62
     0
 10
166.559
 20
100.09
 30
0.0
 11
166.604
 21
103.063
 31
0.0
  0
LINE
  8
0
 62
     0
 10
166.604
 20
103.063
 30
0.0
 11
166.664
 21
105.188
 31
0.0
  0
LINE
  8
0
 62
     0
 10
166.664
 20
105.188
 30
0.0
 11
166.744
 21
106.568
 31
0.0
  0
LINE
  8
0
 62
     0
 10
166.744
 20
106.568
 30
0.0
 11
166.844
 21
107.299
 31
0.0
  0
LINE
  8
0
 62
     0
 10
166.844
 20
107.299
 30
0.0
 11
166.959
 21
107.488
 31
0.0
  0
LINE
  8
0
 62
     0
 10
166.959
 20
107.488
 30
0.0
 11
166.97
 21
107.484
 31
0.0
  0
LINE
  8
0
 62
     0
 10
166.97
 20
107.484
 30
0.0
 11
167.084
 21
107.439
 31
0.0
  0
LINE
  8
0
 62
     0
 10
167.084
 20
107.439
 30
0.0
 11
167.491
 21
107.279
 31
0.0
  0
LINE
  8
0
 62
     0
 10
167.491
 20
107.279
 30
0.0
 11
168.824
 21
106.755
 31
0.0
  0
LINE
  8
0
 62
     0
 10
168.824
 20
106.755
 30
0.0
 11
170.88
 21
105.948
 31
0.0
  0
LINE
  8
0
 62
     0
 10
170.88
 20
105.948
 30
0.0
 11
173.571
 21
104.891
 31
0.0
  0
LINE
  8
0
 62
     0
 10
173.571
 20
104.891
 30
0.0
 11
176.808
 21
103.62
 31
0.0
  0
LINE
  8
0
 62
     0
 10
176.808
 20
103.62
 30
0.0
 11
180.505
 21
102.169
 31
0.0
  0
LINE
  8
0
 62
     0
 10
180.505
 20
102.169
 30
0.0
 11
184.572
 21
100.572
 31
0.0
  0
LINE
  8
0
 62
     0
 10
184.572
 20
100.572
 30
0.0
 11
188.921
 21
98.8646
 31
0.0
  0
LINE
  8
0
 62
     0
 10
188.921
 20
98.8646
 30
0.0
 11
193.465
 21
97.0802
 31
0.0
  0
LINE
  8
0
 62
     0
 10
193.465
 20
97.0802
 30
0.0
 11
198.115
 21
95.2556
 31
0.0
  0
LINE
  8
0
 62
     0
 10
198.115
 20
95.2556
 30
0.0
 11
202.784
 21
93.4226
 31
0.0
  0
LINE
  8
0
 62
     0
 10
202.784
 20
93.4226
 30
0.0
 11
207.381
 21
91.6174
 31
0.0
  0
LINE
  8
0
 62
     0
 10
207.381
 20
91.6174
 30
0.0
 11
211.821
 21
89.8758
 31
0.0
  0
LINE
  8
0
 62
     0
 10
211.821
 20
89.8758
 30
0.0
 11
216.013
 21
88.2304
 31
0.0
  0
LINE
  8
0
 62
     0
 10
216.013
 20
88.2304
 30
0.0
 11
219.872
 21
86.716
 31
0.0
  0
LINE
  8
0
 62
     0
 10
219.872
 20
86.716
 30
0.0
 11
222.449
 21
85.7042
 31
0.0
  0
LINE
  8
0
 62
     0
 10
222.449
 20
85.7042
 30
0.0
 11
223.308
 21
85.3666
 31
0.0
  0
LINE
  8
0
 62
     0
 10
223.308
 20
85.3666
 30
0.0
 11
224.088
 21
85.0607
 31
0.0
  0
LINE
  8
0
 62
     0
 10
224.088
 20
85.0607
 30
0.0
 11
226.434
 21
84.1456
 31
0.0
  0
LINE
  8
0
 62
     0
 10
226.434
 20
84.1456
 30
0.0
 11
228.874
 21
83.2072
 31
0.0
  0
LINE
  8
0
 62
     0
 10
228.874
 20
83.2072
 30
0.0
 11
230.74
 21
82.5168
 31
0.0
  0
LINE
  8
0
 62
     0
 10
230.74
 20
82.5168
 30
0.0
 11
232.144
 21
82.0402
 31
0.0
  0
LINE
  8
0
 62
     0
 10
232.144
 20
82.0402
 30
0.0
 11
233.198
 21
81.7411
 31
0.0
  0
LINE
  8
0
 62
     0
 10
233.198
 20
81.7411
 30
0.0
 11
234.013
 21
81.5855
 31
0.0
  0
LINE
  8
0
 62
     0
 10
234.013
 20
81.5855
 30
0.0
 11
234.701
 21
81.5386
 31
0.0
  0
LINE
  8
0
 62
     0
 10
234.701
 20
81.5386
 30
0.0
 11
235.205
 21
81.5509
 31
0.0
  0
LINE
  8
0
 62
     0
 10
235.205
 20
81.5509
 30
0.0
 11
235.373
 21
81.5619
 31
0.0
  0
LINE
  8
0
 62
     0
 10
235.373
 20
81.5619
 30
0.0
 11
235.891
 21
81.5993
 31
0.0
  0
LINE
  8
0
 62
     0
 10
235.891
 20
81.5993
 30
0.0
 11
237.427
 21
82.0057
 31
0.0
  0
LINE
  8
0
 62
     0
 10
237.427
 20
82.0057
 30
0.0
 11
239.139
 21
82.9511
 31
0.0
  0
LINE
  8
0
 62
     0
 10
239.139
 20
82.9511
 30
0.0
 11
240.472
 21
84.2931
 31
0.0
  0
LINE
  8
0
 62
     0
 10
240.472
 20
84.2931
 30
0.0
 11
241.381
 21
85.9247
 31
0.0
  0
LINE
  8
0
 62
     0
 10
241.381
 20
85.9247
 30
0.0
 11
241.825
 21
87.7383
 31
0.0
  0
LINE
  8
0
 62
     0
 10
241.825
 20
87.7383
 30
0.0
 11
241.76
 21
89.6278
 31
0.0
  0
LINE
  8
0
 62
     0
 10
241.76
 20
89.6278
 30
0.0
 11
241.147
 21
91.4852
 31
0.0
  0
LINE
  8
0
 62
     0
 10
241.147
 20
91.4852
 30
0.0
 11
240.297
 21
92.8261
 31
0.0
  0
LINE
  8
0
 62
     0
 10
240.297
 20
92.8261
 30
0.0
 11
239.943
 21
93.2035
 31
0.0
  0
LINE
  8
0
 62
     0
 10
239.943
 20
93.2035
 30
0.0
 11
239.885
 21
93.2656
 31
0.0
  0
LINE
  8
0
 62
     0
 10
239.885
 20
93.2656
 30
0.0
 11
239.722
 21
93.4586
 31
0.0
  0
LINE
  8
0
 62
     0
 10
239.722
 20
93.4586
 30
0.0
 11
239.529
 21
93.6791
 31
0.0
  0
LINE
  8
0
 62
     0
 10
239.529
 20
93.6791
 30
0.0
 11
239.269
 21
93.9052
 31
0.0
  0
LINE
  8
0
 62
     0
 10
239.269
 20
93.9052
 30
0.0
 11
238.841
 21
94.1779
 31
0.0
  0
LINE
  8
0
 62
     0
 10
238.841
 20
94.1779
 30
0.0
 11
238.153
 21
94.5363
 31
0.0
  0
LINE
  8
0
 62
     0
 10
238.153
 20
94.5363
 30
0.0
 11
237.107
 21
95.0186
 31
0.0
  0
LINE
  8
0
 62
     0
 10
237.107
 20
95.0186
 30
0.0
 11
235.606
 21
95.6649
 31
0.0
  0
LINE
  8
0
 62
     0
 10
235.606
 20
95.6649
 30
0.0
 11
233.554
 21
96.5151
 31
0.0
  0
LINE
  8
0
 62
     0
 10
233.554
 20
96.5151
 30
0.0
 11
230.855
 21
97.608
 31
0.0
  0
LINE
  8
0
 62
     0
 10
230.855
 20
97.608
 30
0.0
 11
227.412
 21
98.9817
 31
0.0
  0
LINE
  8
0
 62
     0
 10
227.412
 20
98.9817
 30
0.0
 11
223.129
 21
100.678
 31
0.0
  0
LINE
  8
0
 62
     0
 10
223.129
 20
100.678
 30
0.0
 11
217.909
 21
102.736
 31
0.0
  0
LINE
  8
0
 62
     0
 10
217.909
 20
102.736
 30
0.0
 11
211.657
 21
105.194
 31
0.0
  0
LINE
  8
0
 62
     0
 10
211.657
 20
105.194
 30
0.0
 11
204.275
 21
108.09
 31
0.0
  0
LINE
  8
0
 62
     0
 10
204.275
 20
108.09
 30
0.0
 11
195.666
 21
111.468
 31
0.0
  0
LINE
  8
0
 62
     0
 10
195.666
 20
111.468
 30
0.0
 11
188.219
 21
114.39
 31
0.0
  0
LINE
  8
0
 62
     0
 10
188.219
 20
114.39
 30
0.0
 11
185.738
 21
115.363
 31
0.0
  0
LINE
  8
0
 62
     0
 10
185.738
 20
115.363
 30
0.0
 11
184.529
 21
115.836
 31
0.0
  0
LINE
  8
0
 62
     0
 10
184.529
 20
115.836
 30
0.0
 11
180.905
 21
117.264
 31
0.0
  0
LINE
  8
0
 62
     0
 10
180.905
 20
117.264
 30
0.0
 11
176.247
 21
119.105
 31
0.0
  0
LINE
  8
0
 62
     0
 10
176.247
 20
119.105
 30
0.0
 11
171.873
 21
120.842
 31
0.0
  0
LINE
  8
0
 62
     0
 10
171.873
 20
120.842
 30
0.0
 11
167.899
 21
122.428
 31
0.0
  0
LINE
  8
0
 62
     0
 10
167.899
 20
122.428
 30
0.0
 11
164.433
 21
123.821
 31
0.0
  0
LINE
  8
0
 62
     0
 10
164.433
 20
123.821
 30
0.0
 11
161.59
 21
124.974
 31
0.0
  0
LINE
  8
0
 62
     0
 10
161.59
 20
124.974
 30
0.0
 11
159.482
 21
125.844
 31
0.0
  0
LINE
  8
0
 62
     0
 10
159.482
 20
125.844
 30
0.0
 11
158.532
 21
126.242
 31
0.0
  0
LINE
  8
0
 62
     0
 10
158.532
 20
126.242
 30
0.0
 11
158.221
 21
126.383
 31
0.0
  0
LINE
  8
0
 62
     0
 10
158.221
 20
126.383
 30
0.0
 11
157.827
 21
126.56
 31
0.0
  0
LINE
  8
0
 62
     0
 10
157.827
 20
126.56
 30
0.0
 11
156.643
 21
127.09
 31
0.0
  0
LINE
  8
0
 62
     0
 10
156.643
 20
127.09
 30
0.0
 11
155.24
 21
127.713
 31
0.0
  0
LINE
  8
0
 62
     0
 10
155.24
 20
127.713
 30
0.0
 11
154.158
 21
128.186
 31
0.0
  0
LINE
  8
0
 62
     0
 10
154.158
 20
128.186
 30
0.0
 11
153.656
 21
128.403
 31
0.0
  0
LINE
  8
0
 62
     0
 10
153.656
 20
128.403
 30
0.0
 11
153.547
 21
128.447
 31
0.0
  0
LINE
  8
0
 62
     0
 10
153.547
 20
128.447
 30
0.0
 11
152.753
 21
128.764
 31
0.0
  0
LINE
  8
0
 62
     0
 10
152.753
 20
128.764
 30
0.0
 11
152.753
 21
105.833
 31
0.0
  0
ENDSEC
  0
EOF
